<svg width="55" height="30" viewBox="0 0 55 30" fill="none" xmlns="http://www.w3.org/2000/svg">
<path d="M20.9744 6.10352e-05L54.2382 6.28063e-05L47.8829 29.7143L14.6191 29.7143L20.9744 6.10352e-05Z" fill="#D92630"/>
<path d="M7.60799 6.10352e-05L15.5715 6.28063e-05L8.67786 29.7143L0.714355 29.7143L7.60799 6.10352e-05Z" fill="#D92630"/>
<path d="M44.1627 21.4258C44.1627 21.7874 44.0824 22.1591 43.9116 22.5207C43.7409 22.8823 43.5199 23.2239 43.2286 23.5453C42.7364 24.0877 42.1939 24.4795 41.5812 24.7306C40.9785 24.9817 40.3256 25.1123 39.6224 25.1123C38.5979 25.1123 37.503 24.8712 36.3478 24.379C35.1926 23.8868 34.0375 23.2239 32.8923 22.3901C31.7372 21.5464 30.6423 20.6122 29.5976 19.5776C28.563 18.5329 27.6288 17.438 26.7951 16.2929C25.9714 15.1477 25.3084 14.0026 24.8263 12.8675C24.3441 11.7224 24.103 10.6275 24.103 9.58286C24.103 8.8998 24.2236 8.24688 24.4646 7.64419C24.7057 7.03145 25.0874 6.46893 25.6198 5.96668C26.2627 5.33385 26.9658 5.02246 27.7092 5.02246C27.9904 5.02246 28.2717 5.08273 28.5228 5.20327C28.784 5.32381 29.015 5.50462 29.1958 5.76579L31.5262 9.05048C31.707 9.3016 31.8376 9.53263 31.928 9.75362C32.0184 9.96456 32.0687 10.1755 32.0687 10.3664C32.0687 10.6074 31.9983 10.8485 31.8577 11.0795C31.7271 11.3106 31.5363 11.5517 31.2952 11.7927L30.5318 12.5863C30.4213 12.6968 30.3711 12.8274 30.3711 12.9881C30.3711 13.0684 30.3811 13.1388 30.4012 13.2191C30.4313 13.2995 30.4615 13.3597 30.4816 13.42C30.6624 13.7515 30.9738 14.1834 31.4157 14.7058C31.8678 15.2281 32.3499 15.7605 32.8722 16.2929C33.4147 16.8252 33.937 17.3174 34.4694 17.7695C34.9917 18.2114 35.4237 18.5128 35.7652 18.6936C35.8154 18.7137 35.8757 18.7438 35.946 18.774C36.0264 18.8041 36.1067 18.8141 36.1971 18.8141C36.3679 18.8141 36.4985 18.7539 36.609 18.6434L37.3724 17.89C37.6235 17.6389 37.8646 17.448 38.0956 17.3275C38.3266 17.1869 38.5577 17.1165 38.8088 17.1165C38.9996 17.1165 39.2005 17.1567 39.4215 17.2471C39.6425 17.3375 39.8736 17.4681 40.1247 17.6389L43.4496 19.9994C43.7107 20.1803 43.8915 20.3912 44.002 20.6423C44.1025 20.8934 44.1627 21.1446 44.1627 21.4258Z" stroke="white" stroke-width="1.50674" stroke-miterlimit="10"/>
<path d="M42.1839 7.03206H37.3623M42.1839 7.03206V11.8536V7.03206Z" stroke="white" stroke-width="1.50674" stroke-linecap="round" stroke-linejoin="round"/>
</svg>
