<svg width="1500" height="263" viewBox="0 0 1500 263" fill="none" xmlns="http://www.w3.org/2000/svg">
<mask id="mask0_6313_533" style="mask-type:alpha" maskUnits="userSpaceOnUse" x="0" y="0" width="1500" height="263">
<rect width="1500" height="263" fill="#D9D9D9"/>
</mask>
<g mask="url(#mask0_6313_533)">
<mask id="mask1_6313_533" style="mask-type:alpha" maskUnits="userSpaceOnUse" x="0" y="0" width="1500" height="606">
<rect width="1500" height="606" fill="#D9D9D9"/>
</mask>
<g mask="url(#mask1_6313_533)">
<g style="mix-blend-mode:multiply" opacity="0.1">
<path opacity="0.09" d="M1753.85 9.11603L1343.74 582.383L770.473 172.277L1753.85 9.11603Z" fill="#EAEAEA"/>
<path opacity="0.18" d="M1741.5 16.8084L1342.46 574.612L784.652 175.572L1741.5 16.8084Z" fill="#D5D5D5"/>
<path opacity="0.27" d="M1729.14 24.5065L1341.17 566.842L798.831 178.867L1729.14 24.5065Z" fill="#C1C1C1"/>
<path opacity="0.36" d="M1716.79 32.2045L1339.88 559.072L813.009 182.163L1716.79 32.2045Z" fill="#ACACAC"/>
<path opacity="0.45" d="M1704.43 39.9024L1338.59 551.302L827.184 185.455L1704.43 39.9024Z" fill="#979797"/>
<path opacity="0.55" d="M1692.08 47.592L1337.3 543.523L841.365 188.745L1692.08 47.592Z" fill="#828282"/>
<path opacity="0.64" d="M1679.72 55.2892L1336.01 535.753L855.546 192.04L1679.72 55.2892Z" fill="#6D6D6D"/>
<path opacity="0.73" d="M1667.37 62.9863L1334.72 527.982L869.723 195.334L1667.37 62.9863Z" fill="#585858"/>
<path opacity="0.82" d="M1655.01 70.685L1333.43 520.212L883.899 198.627L1655.01 70.685Z" fill="#444444"/>
<path opacity="0.91" d="M1642.66 78.3774L1332.14 512.441L898.076 201.922L1642.66 78.3774Z" fill="#2F2F2F"/>
<path d="M1630.3 86.0754L1330.85 504.671L912.255 205.217L1630.3 86.0754Z" fill="#1A1A1A"/>
</g>
<path d="M1681.37 83.1986L1471.41 769.932L1195.5 711.861L566.84 225.996L1681.37 83.1986Z" fill="url(#paint0_linear_6313_533)"/>
<path style="mix-blend-mode:screen" d="M761.993 267.283L1816.32 130.197L1807.81 64.7732L753.487 201.859L761.993 267.283Z" fill="url(#paint1_radial_6313_533)"/>
<g style="mix-blend-mode:screen">
<path d="M1297.02 161.035C1265.71 165.131 1232.13 169.553 1198.7 174.12C1166.12 178.533 1133.06 183.185 1100.46 187.945L1100.81 190.616C1133.54 186.881 1166.68 182.929 1199.33 178.866C1232.8 174.735 1266.39 170.423 1297.71 166.378C1328.78 162.318 1362.18 157.924 1396.03 153.298C1428.5 148.903 1461.56 144.249 1494.27 139.469L1493.92 136.798C1461.07 140.542 1427.92 144.493 1395.41 148.545C1361.5 152.728 1328.08 157.024 1297.02 161.037L1297.02 161.041L1297.02 161.035Z" fill="#1A1A1A"/>
</g>
<g style="mix-blend-mode:screen" opacity="0.65">
<path d="M951.063 208.724C1008.85 201.738 1066.61 194.58 1124.35 187.252C1182.1 179.961 1239.82 172.515 1297.54 165.04C1355.25 157.514 1412.96 149.953 1470.65 142.238C1528.35 134.561 1586.02 126.711 1643.67 118.688C1585.88 125.67 1528.12 132.826 1470.38 140.157C1412.63 147.448 1354.91 154.894 1297.19 162.375C1239.48 169.904 1181.77 177.465 1124.08 185.18C1066.38 192.857 1008.71 200.707 951.059 208.726L951.063 208.724Z" fill="white"/>
</g>
<g style="mix-blend-mode:multiply" opacity="0.4">
<path opacity="0.09" d="M-228.85 9.84368L181.65 582.826L754.638 172.322L-228.85 9.84368Z" fill="#EAEAEA"/>
<path opacity="0.18" d="M-216.494 17.5272L182.934 575.054L740.461 175.627L-216.494 17.5272Z" fill="#D5D5D5"/>
<path opacity="0.27" d="M-204.133 25.2175L184.218 567.284L726.285 178.933L-204.133 25.2175Z" fill="#C1C1C1"/>
<path opacity="0.36" d="M-191.773 32.9068L185.502 559.513L712.108 182.238L-191.773 32.9068Z" fill="#ACACAC"/>
<path opacity="0.45" d="M-179.414 40.5959L186.785 551.742L697.936 185.54L-179.414 40.5959Z" fill="#979797"/>
<path opacity="0.55" d="M-167.051 48.2767L188.072 543.962L683.757 188.84L-167.051 48.2767Z" fill="#828282"/>
<path opacity="0.64" d="M-154.692 55.9661L189.354 536.191L669.579 192.145L-154.692 55.9661Z" fill="#6D6D6D"/>
<path opacity="0.73" d="M-142.331 63.6535L190.639 528.418L655.403 195.448L-142.331 63.6535Z" fill="#585858"/>
<path opacity="0.82" d="M-129.972 71.3444L191.922 520.649L641.231 198.751L-129.972 71.3444Z" fill="#444444"/>
<path opacity="0.91" d="M-117.614 79.028L193.207 512.877L627.055 202.056L-117.614 79.028Z" fill="#2F2F2F"/>
<path d="M-105.254 86.7173L194.49 505.105L612.878 205.361L-105.254 86.7173Z" fill="#1A1A1A"/>
</g>
<path d="M-156.318 83.8758L54.1147 770.463L329.983 712.201L958.307 225.9L-156.318 83.8758Z" fill="url(#paint2_linear_6313_533)"/>
<path style="mix-blend-mode:screen" d="M819.551 278.002L-236.232 141.471L-227.42 73.3243L828.363 209.855L819.551 278.002Z" fill="url(#paint3_radial_6313_533)"/>
<g style="mix-blend-mode:screen">
<path d="M283.086 171.948C314.402 176.022 347.984 180.42 381.409 184.964C414.001 189.354 447.059 193.984 479.658 198.721L479.313 201.392C446.583 197.68 413.437 193.751 380.791 189.711C347.318 185.603 313.719 181.314 282.399 177.291C251.328 173.252 217.921 168.881 184.065 164.279C151.596 159.906 118.534 155.275 85.8173 150.518L86.1627 147.847C119.015 151.568 152.17 155.496 184.69 159.526C218.597 163.685 252.017 167.957 283.081 171.95L283.088 171.953L283.086 171.948Z" fill="#1A1A1A"/>
</g>
<g style="mix-blend-mode:screen" opacity="0.65">
<path d="M629.074 219.396C571.283 212.449 513.518 205.331 455.774 198.044C398.022 190.793 340.294 183.387 282.569 175.952C224.848 168.466 167.134 160.945 109.438 153.27C51.7394 145.633 -5.93767 137.823 -63.5927 129.84C-5.80398 136.782 51.9664 143.898 109.71 151.189C167.461 158.44 225.189 165.846 282.916 173.286C340.635 180.775 398.349 188.297 456.045 195.971C513.744 203.608 571.421 211.418 629.078 219.397L629.074 219.396Z" fill="white"/>
</g>
</g>
</g>
<defs>
<linearGradient id="paint0_linear_6313_533" x1="1367.04" y1="-159.734" x2="940.079" y2="392.835" gradientUnits="userSpaceOnUse">
<stop stop-color="#1A1A1A"/>
<stop offset="1" stop-color="#1D1D1D"/>
</linearGradient>
<radialGradient id="paint1_radial_6313_533" cx="0" cy="0" r="1" gradientUnits="userSpaceOnUse" gradientTransform="translate(1252.94 138.801) rotate(-7.40818) scale(379.21 17.8169)">
<stop stop-color="#FF0000"/>
<stop offset="1"/>
</radialGradient>
<linearGradient id="paint2_linear_6313_533" x1="157.844" y1="-159.275" x2="585.185" y2="392.998" gradientUnits="userSpaceOnUse">
<stop stop-color="#1A1A1A"/>
<stop offset="1" stop-color="#1D1D1D"/>
</linearGradient>
<radialGradient id="paint3_radial_6313_533" cx="0" cy="0" r="1" gradientUnits="userSpaceOnUse" gradientTransform="translate(328.209 147.137) rotate(-172.632) scale(379.701 18.5566)">
<stop stop-color="#FF0000"/>
<stop offset="1"/>
</radialGradient>
</defs>
</svg>
