<svg width="23" height="23" viewBox="0 0 23 23" fill="none" xmlns="http://www.w3.org/2000/svg">
<path d="M21.0642 17.4074C21.0642 17.769 20.9839 18.1407 20.8131 18.5023C20.6423 18.8639 20.4214 19.2054 20.1301 19.5269C19.6379 20.0693 19.0954 20.461 18.4827 20.7122C17.88 20.9633 17.2271 21.0939 16.5239 21.0939C15.4993 21.0939 14.4044 20.8528 13.2493 20.3606C12.0941 19.8684 10.9389 19.2054 9.79383 18.3717C8.63866 17.5279 7.54376 16.5937 6.49909 15.5591C5.46446 14.5144 4.53028 13.4195 3.69656 12.2744C2.87287 11.1293 2.20991 9.98418 1.72775 8.84911C1.24559 7.70399 1.00452 6.60909 1.00452 5.56442C1.00452 4.88136 1.12506 4.22844 1.36613 3.62575C1.60721 3.01301 1.98892 2.45049 2.5213 1.94824C3.16418 1.31541 3.86732 1.00402 4.61064 1.00402C4.8919 1.00402 5.17316 1.06429 5.42428 1.18483C5.68545 1.30537 5.91648 1.48618 6.09729 1.74735L8.42772 5.03204C8.60852 5.28316 8.73911 5.51419 8.82951 5.73518C8.91992 5.94612 8.97014 6.15707 8.97014 6.34792C8.97014 6.589 8.89983 6.83008 8.7592 7.06111C8.62861 7.29214 8.43776 7.53322 8.19668 7.7743L7.43327 8.56785C7.32277 8.67834 7.27255 8.80893 7.27255 8.96965C7.27255 9.05001 7.28259 9.12032 7.30268 9.20068C7.33282 9.28104 7.36295 9.34131 7.38304 9.40158C7.56385 9.73306 7.87524 10.165 8.31722 10.6873C8.76924 11.2097 9.2514 11.742 9.77373 12.2744C10.3162 12.8068 10.8385 13.299 11.3709 13.751C11.8932 14.193 12.3251 14.4944 12.6667 14.6752C12.7169 14.6953 12.7772 14.7254 12.8475 14.7555C12.9278 14.7857 13.0082 14.7957 13.0986 14.7957C13.2694 14.7957 13.4 14.7354 13.5104 14.6249L14.2739 13.8716C14.525 13.6204 14.7661 13.4296 14.9971 13.3091C15.2281 13.1684 15.4592 13.0981 15.7103 13.0981C15.9011 13.0981 16.102 13.1383 16.323 13.2287C16.544 13.3191 16.775 13.4497 17.0262 13.6204L20.351 15.981C20.6122 16.1618 20.793 16.3728 20.9035 16.6239C21.004 16.875 21.0642 17.1261 21.0642 17.4074Z" stroke="white" stroke-width="1.50674" stroke-miterlimit="10"/>
<path d="M19.0854 3.01362H14.2638M19.0854 3.01362V7.83519V3.01362Z" stroke="white" stroke-width="1.50674" stroke-linecap="round" stroke-linejoin="round"/>
</svg>
